<svg width="498" height="11" fill="none" xmlns="http://www.w3.org/2000/svg"><g clip-path="url(#clip0)" fill-rule="evenodd" clip-rule="evenodd" fill="currentColor"><path opacity=".1" d="M224.339 3.265c3.683.173 7.155.36 10.879.506 3.931.153 8.052.273 12.335.357 3.538.07 6.996.165 10.683.145 2.775.122 5.766.063 8.654.078 1.184.006 2.382-.046 3.578-.045 1.291.001 2.445-.046 3.586-.05 4.222-.012 8.043-.157 12.208-.18.306-.003.576-.033.972-.056l3.561.194-3.304.185 3.904.01-1.069.194.823.106c-.553.11-.866.262-1.941.364-1.497.14-3.487.253-5.428.359a57.95 57.95 0 01-3.109.061c-2.303-.013-4.362.1-6.713.054-.344-.007-.816.032-1.291.053l-.475-.108-14.605-.035c1.444.066 2.965.051 4.455.058 1.689.007 3.382.007 5.073.013 1.501.004 3.004.011 4.5.072-2.945-.007-5.892-.013-8.837-.022-3.5-.01-7.07.013-10.284-.147-3.515-.004-6.687-.118-9.983-.201a70.038 70.038 0 01-4.074-.203l-.706.055c-2.333-.105-4.624-.233-7.143-.313-1.74-.055-2.423-.207-4.279-.238-.681-.012-1.291-.053-2.302-.097-1.133-.032-2.965.06-4.319-.067l-.661.05-1.008-.048-.56.109-1.292-.003.715-.092c-.218-.008-.506-.028-.644-.023-.976.035-1.929.074-2.875.114-.848.036-1.678.075-2.712.121l-1.137-.06-.702.113-.595-.044c-.8.049-1.551.134-2.425.141-2.399.019-4.146.146-6.35.195-1.117.024-2.081.099-3.003.161-3.06.207-6.406.375-10.174.487l-.929-.07-1.496.115-3.347-.008-1.426.182-1.369-.003c-.448.043-.759.106-1.288.12-2.452.06-4.695.192-7.664.056-1.263-.058-3.227-.017-4.881.03l4.692.034-.02.035-5.24-.012-.591-.134c-1.835.135-3.714.076-5.54.01-2.568-.095-5.053-.193-7.308-.342a290.707 290.707 0 00-9.563-.5c-.338-.012-.619-.034-1.199-.066l-4.569-.011c-.15-.018-.276-.028-.255-.033.039-.009.181-.014.26-.022.133-.013.252-.028.482-.054l-2.794-.006-.532-.126-1.603-.024.93.107c-.2.016-.448.037-.822.07l2.442.043c-5.113.053-10.004.201-15.195.121-.942.208-2.922.255-5.461.242-3.317.233-6.627.478-10.104.707-3.625.239-7.747.434-12.374.507-3.899.062-8.024.169-12.123 0-.316-.013-.771-.005-1.16-.004-3.961.006-7.379-.14-10.785-.276-1.426-.057-2.535-.165-3.946-.226-1.936-.083-4.067-.126-6.203-.174-3.82-.085-7.614-.059-11.414-.078-3.51-.018-6.94.018-10.287.096-.354.008-.81.007-1.155-.004-.337-.01-.59-.038-.963-.065l-.563.131-1.897-.061-.318.095c-3.164.064-5.754.297-9.624.24l-1.156.088.832.075c-1.855.105-3.958.19-5.474.319-1.61.137-3.101.276-5.449.398l-1.091.18-1.952.084c-.22.186-.22.186-1.394.295l-3.384-.276.001-.539c.169-.009 1.304-.038 1.344-.076.168-.159 2.24-.202 2.81-.33.606-.137 2.117-.216 3.295-.317 1.603-.137 3.18-.277 4.691-.42 3.405-.325 10.446-.653 16.86-.754 1.516-.024 2.938-.079 4.439-.109 1.417-.029 2.973.049 4.429-.046.6-.039 2.008-.002 2.15-.002l2.44.105-1.199.129 4.77.011-2.464-.074c2.14-.172 4.189-.301 7.38-.156.305.014.736.012 1.11.014 4.828.017 9.035.157 13 .385a92.06 92.06 0 005.87.15c2.1-.018 3.933.066 5.927.079 6.053.038 11.308-.127 16.147-.379 2.563-.133 5.076-.278 7.343-.44 3.94-.283 8.669-.448 13.655-.567 3.584-.086 7.413-.11 11.079-.173 3.842-.065 7.633-.003 11.41-.028 2.449-.017 4.381.076 6.22.17 4.062.209 7.919.443 11.955.655 1.857.097 4.107.129 6.253.158 3.929.054 7.706-.02 11.346-.113 2.939-.074 5.729-.184 8.564-.28 4.757-.164 9.099-.383 13.536-.592 4.469-.21 9.262-.39 14.661-.442 1.649-.016 3.241-.067 4.827-.11 3.466-.09 7.052-.03 10.495-.037zM451.407 3.315c2.526.17 4.907.355 7.462.497 2.696.15 5.522.268 8.461.349 2.426.067 4.798.159 7.327.136 1.904.12 3.955.059 5.936.072.812.005 1.634-.048 2.454-.048.886 0 1.677-.048 2.46-.052 2.896-.016 5.517-.164 8.374-.19.21-.003.394-.033.666-.056l2.443.19-2.267.188 2.678.007-.733.195.564.106c-.379.11-.594.263-1.331.365-1.028.142-2.392.255-3.724.363-.568.046-1.422.07-2.133.064-1.579-.011-2.991.103-4.604.059-.236-.007-.56.032-.886.053l-.326-.107-10.017-.024c.99.064 2.034.049 3.056.054 1.158.006 2.32.005 3.479.01 1.03.003 2.061.008 3.087.068-2.02-.005-4.041-.008-6.062-.015-2.4-.007-4.849.018-7.053-.14-2.412 0-4.587-.112-6.848-.193a33.094 33.094 0 01-2.794-.2l-.485.055c-1.6-.103-3.171-.229-4.899-.307-1.194-.054-1.661-.205-2.935-.235-.467-.011-.885-.052-1.578-.095-.778-.03-2.035.063-2.963-.064l-.454.051-.691-.047-.384.109-.886-.003.491-.092c-.151-.008-.348-.028-.442-.023-.67.036-1.324.076-1.973.117-.581.037-1.151.076-1.859.123l-.781-.06-.481.115-.408-.045c-.549.05-1.064.136-1.664.144-1.645.02-2.843.149-4.356.199-.765.025-1.427.1-2.06.164-2.098.209-4.394.379-6.978.494l-.637-.07-1.026.117-2.297-.005-.978.183-.939-.003c-.307.044-.52.108-.884.121-1.681.063-3.22.196-5.256.062-.867-.057-2.214-.014-3.348.034l3.218.03-.014.036-3.594-.009-.405-.133c-1.259.136-2.548.079-3.8.013-1.761-.092-3.466-.188-5.013-.336a137.294 137.294 0 00-6.559-.493c-.231-.011-.425-.033-.822-.065l-3.134-.007c-.103-.018-.189-.028-.175-.033.027-.008.124-.014.178-.022.092-.013.173-.028.331-.054l-1.916-.005-.365-.125-1.1-.023.638.106-.563.07 1.674.043c-3.507.056-6.862.208-10.422.132-.647.208-2.005.257-3.746.246-2.276.235-4.546.483-6.931.715a116.7 116.7 0 01-8.488.516c-2.674.065-5.504.174-8.316.009-.217-.013-.529-.004-.796-.003-2.716.008-5.06-.134-7.397-.268-.977-.056-1.738-.163-2.706-.223-1.328-.082-2.79-.123-4.255-.17-2.621-.082-5.222-.053-7.829-.07-2.407-.015-4.761.025-7.056.104-.243.009-.556.008-.792-.002-.231-.01-.405-.039-.661-.064l-.386.131-1.301-.06-.218.095c-2.171.066-3.947.302-6.602.247l-.792.09.57.074c-1.273.106-2.715.193-3.755.323-1.105.138-2.127.279-3.738.402l-.748.181-1.34.086c-.15.185-.15.185-.956.295l-2.321-.273.001-.539c.116-.01.895-.039.922-.078.116-.158 1.536-.203 1.928-.332.416-.137 1.452-.217 2.26-.319 1.1-.138 2.182-.279 3.218-.424 2.336-.327 7.166-.66 11.566-.766 1.039-.025 2.014-.08 3.044-.112.972-.03 2.039.046 3.038-.05.412-.04 1.377-.003 1.475-.003l1.673.103-.822.13 3.272.007-1.69-.072c1.468-.173 2.873-.304 5.062-.162.209.014.505.012.761.014 3.312.013 6.198.15 8.917.375 1.101.09 2.558.166 4.027.146 1.44-.02 2.697.063 4.065.074 4.152.034 7.756-.135 11.075-.39 1.759-.136 3.482-.283 5.038-.447 2.702-.286 5.946-.454 9.366-.577 2.459-.088 5.085-.116 7.599-.18 2.636-.069 5.236-.01 7.827-.038 1.68-.018 3.005.073 4.266.166 2.786.206 5.432.437 8.2.645 1.274.097 2.817.127 4.289.154 2.694.051 5.285-.026 7.782-.121 2.016-.077 3.93-.188 5.875-.288 3.263-.167 6.241-.389 9.285-.6 3.065-.215 6.353-.398 10.056-.454 1.131-.017 2.223-.07 3.311-.113 2.378-.094 4.837-.035 7.199-.045z"/></g><defs><clipPath id="clip0"><path fill="none" d="M0 0h498v11H0z"/></clipPath></defs></svg>