<svg fill="none" viewBox="0 0 48 48" xmlns="http://www.w3.org/2000/svg"><path clip-rule="evenodd" d="m24 48c13.255 0 24-10.745 24-24s-10.745-24-24-24-24 10.745-24 24 10.745 24 24 24zm-10.284-36.249a.923.923 0 0 0 0 1.846h16.018a6.628 6.628 0 0 1 0 13.255h-16.018a.923.923 0 0 0 0 1.846h16.018a8.474 8.474 0 0 0 0-16.947zm0 3.775a.923.923 0 1 0 0 1.846h15.864a2.852 2.852 0 0 1 0 5.705h-15.864a.923.923 0 0 0 0 1.846h15.864a4.698 4.698 0 0 0 0-9.397zm-.923 16.025c0-.51.413-.923.923-.923h9.617a.923.923 0 0 1 0 1.846h-9.617a.923.923 0 0 1 -.923-.923zm.923 2.852a.923.923 0 1 0 0 1.846h9.617a.923.923 0 0 0 0-1.846zm-.923-14.178c0-.51.413-.923.923-.923h9.617a.923.923 0 0 1 0 1.846h-9.617a.923.923 0 0 1 -.923-.923z" fill="#000" fill-rule="evenodd"/></svg>