<svg width="244" height="187" fill="none" xmlns="http://www.w3.org/2000/svg"><path d="M223.397 39.873c-14.271-11.713-32.986-19.221-52-23.005-17.965-10.495-38.469-15.84-59.553-14.594-41.121 2.473-88.389 27.12-104.675 67.22-6.285 15.487-6.142 33.167 4.694 46.705 15.681 19.556 43.395 26.025 66.847 28.859 26.95 3.274 54.686 1.049 81.208-4.254 25.239-5.03 55.997-13.273 72.921-34.426 17.522-21.904 11.6-49.237-9.442-66.505z" fill="#272727"/><path fill-rule="evenodd" clip-rule="evenodd" d="M221.396 37.873c-14.271-11.713-32.986-19.222-52-23.005C151.431 4.373 130.927-.972 109.843.274 68.722 2.747 21.454 27.394 5.168 67.494-1.117 82.982-.974 100.662 9.862 114.2c15.681 19.556 43.395 26.024 66.847 28.858 26.95 3.275 54.686 1.05 81.208-4.253 25.239-5.031 55.997-13.273 72.921-34.426 17.522-21.904 11.6-49.237-9.442-66.505zM190.499 155c0 3.313-10.701 8.016-16.5 8.016-5.799 0-10.5-2.686-10.5-6 0-3.313 12.701-9.5 18.5-9.5 5.799 0 8.5 4.17 8.5 7.484zm-3.667 29c3.222 0 9.167-2.731 9.167-4.655 0-1.924-1.501-4.345-4.722-4.345-3.222 0-10.278 3.592-10.278 5.516s2.612 3.484 5.833 3.484z" fill="#fff"/><path fill-rule="evenodd" clip-rule="evenodd" d="M155.9 12.801a149.723 149.723 0 00-17.576-.873c-2.644.024-2.687 4.137-.069 4.12l.689-.006c.232-.003.464-.006.689-.007 8.825.049 18.503.903 28.255 2.728a105.742 105.742 0 0115.581 11.078c1.99 1.71 4.921-1.15 2.898-2.88a118.369 118.369 0 00-7.086-5.612c18.964 5.098 37.057 14.154 48.463 28.394 9.972 12.478 13.229 29.33 5.464 43.772-6.449 11.996-17.601 20.387-29.577 26.34-26.605 13.214-57.417 18.281-86.84 20.085-28.204 1.719-59.693-.02-85.21-13.632-17.446-9.305-30.124-25.73-25.886-46.444C9.842 59.458 24.753 42.212 40.97 30.156 74.663 5.14 118.399-2.877 155.9 12.801zm13.496 2.067C151.431 4.373 130.927-.972 109.843.274 68.722 2.747 21.454 27.394 5.168 67.494-1.117 82.982-.974 100.662 9.862 114.2c15.681 19.556 43.395 26.024 66.847 28.858 26.95 3.275 54.686 1.05 81.208-4.253 25.239-5.031 55.997-13.273 72.921-34.426 17.522-21.904 11.6-49.237-9.442-66.505-14.271-11.713-32.986-19.222-52-23.005zm11.458 129.885c-.449.12-.808.419-1.048.808a1.672 1.672 0 00-.209 1.076c-.42.03-.839.089-1.228.149a21.93 21.93 0 00-3.084.688c-1.287.388-2.545.926-3.772 1.465-.689.299-1.348.597-2.036.956-.689.359-1.378.718-2.066 1.136-.689.389-1.348.837-1.976 1.286-.779.568-1.497 1.165-2.156 1.883-.719.777-1.318 1.674-1.497 2.72-.18 1.076.12 2.123.658 3.079.539.957 1.408 1.674 2.276 2.332.808.598 1.737 1.016 2.695 1.375 1.078.418 2.215.598 3.353.717 2.186.269 4.401 0 6.557-.358.957-.164 1.863-.378 2.788-.595l.266-.063c1.407-.329 2.785-.807 4.162-1.285 1.557-.568 3.084-1.226 4.491-2.123.375-.234.713-.504 1.044-.769.091-.073.182-.146.273-.217.354-.303.643-.669.941-1.045l.167-.211c.749-1.016 1.048-2.272 1.138-3.497 0-.21-.03-.449-.06-.658a18.04 18.04 0 00-.209-1.226c-.15-.598-.45-1.195-.749-1.733-.329-.568-.748-1.077-1.168-1.555a9.542 9.542 0 00-1.407-1.285 20.235 20.235 0 00-1.647-1.166 13.5 13.5 0 00-2.095-1.017 17.301 17.301 0 00-1.617-.538c-.295-.09-.607-.129-.924-.169-.101-.013-.202-.025-.304-.04l-.629-.09h-.03a2.294 2.294 0 00-.449-.059c-.149-.03-.299 0-.449.029zm.479 3.647c.18.09.33.18.509.299.162.093.342.167.512.238l.147.061c.15.075.292.15.434.225.142.074.285.149.434.224l.314.164c.412.216.832.435 1.213.673.479.269.928.568 1.348.897.479.388.928.837 1.317 1.315.18.269.359.568.509.867.075.2.129.42.18.627l.001.004.029.116v.598c-.03.209-.09.419-.18.658-.12.239-.24.448-.389.657a7.51 7.51 0 01-.988.957c-.988.717-2.036 1.285-3.114 1.794-.509.209-1.018.418-1.497.597-.12.045-.24.083-.36.12a6.57 6.57 0 00-.359.12c-.209.074-.419.142-.629.209-.209.067-.419.134-.628.209-.569.179-1.168.329-1.767.478a27.064 27.064 0 01-3.443.688c-1.617.209-3.204.269-4.821.09a12.62 12.62 0 01-2.575-.688 9.406 9.406 0 01-1.766-1.016 5.929 5.929 0 01-.868-.867c-.12-.18-.24-.389-.36-.598a3.164 3.164 0 01-.149-.568v-.299l.089-.359c.12-.239.27-.478.45-.717.509-.628 1.107-1.166 1.766-1.674a23.775 23.775 0 013.503-2.212c.24-.12.479-.249.719-.378.359-.194.718-.388 1.078-.549.268-.123.532-.25.794-.376l.002-.001c.441-.212.879-.422 1.329-.61 2.156-.896 4.402-1.554 6.707-1.883.123-.041.231-.054.345-.067l.093-.012c.023-.003.047-.006.071-.011zm-6.437 12.765a.775.775 0 00-.135.015c-.045.007-.09.015-.135.015.09-.03.18-.03.27-.03zm21.462 12.144c-.269.03-.539.03-.838.03l-1.527.09c-.06-.015-.112-.03-.165-.045a4.55 4.55 0 00-.164-.045c-.569-.15-1.198-.03-1.647.359-.411.065-.823.161-1.223.254-.153.036-.304.071-.454.104-1.161.283-2.242.727-3.345 1.179l-.188.077c-.778.299-1.527.687-2.275 1.106-1.467.837-2.964 1.794-4.012 3.139-.36.478-.689.956-.869 1.524-.089.299-.179.628-.179.927 0 .215.025.417.051.623.014.109.028.22.039.334.022.219.124.422.224.621.03.058.059.116.086.174l.019.042c.12.239.359.538.509.717.419.478.988.867 1.527 1.196.539.329 1.168.538 1.766.717.569.18 1.138.269 1.737.359.659.09 1.317.15 1.976.179.719 0 1.437-.089 2.156-.209 1.078-.179 2.096-.568 3.114-1.016 1.108-.479 2.036-1.136 2.964-1.854.449-.328.808-.747 1.168-1.165.389-.479.778-.987 1.077-1.525.33-.658.569-1.375.599-2.122v-.001c0-.239 0-.478-.03-.717-.03-.299-.06-.598-.149-.897a6.94 6.94 0 00-.33-.837c-.209-.448-.479-.807-.778-1.195-.27-.329-.569-.658-.928-.927a.836.836 0 01.149-.03c.053-.008.105-.015.15-.03h.15c.299 0 .628-.239.628-.568-.029-.239-.179-.508-.419-.568a4.437 4.437 0 01-.117-.021c-.12-.021-.217-.039-.332-.039a.142.142 0 01-.06.03.204.204 0 00-.06.03zm-4.85 2.541c.03.06.06.12.12.179.173.226.337.451.496.671l.104.143.158.215-.01-.012-.034-.043-.036-.05-.02-.027.035.049.021.028c.056.076.113.149.169.222l.114.149c.037.049.074.098.111.15.072.127.167.243.264.362.063.077.126.154.185.236.074.104.142.216.209.328v.001c.068.112.135.224.21.329 0 .029 0 .029.03.059-.02.04-.027.08-.038.12a.363.363 0 01-.022.06c-.12.239-.27.478-.419.687-.36.419-.779.837-1.198 1.196-.718.538-1.497.957-2.305 1.345-.689.269-1.408.479-2.156.598-.809.09-1.617.09-2.395 0a8.127 8.127 0 01-1.467-.389 4.733 4.733 0 01-.539-.298l-.18-.18c0-.015-.008-.022-.015-.03-.008-.007-.015-.015-.015-.03.015-.044.022-.082.03-.119a.84.84 0 01.03-.12c.09-.179.209-.388.329-.568a10.876 10.876 0 011.707-1.614c1.911-1.431 4.061-2.625 6.271-3.58.028.006.079-.011.14-.032.036-.012.076-.025.116-.035zm-8.713 6.248c0 .06.03.119.03.179-.03-.06-.03-.119-.03-.179z" fill="#272727"/></svg>