<svg width="37" height="31" fill="none" xmlns="http://www.w3.org/2000/svg"><path fill-rule="evenodd" clip-rule="evenodd" d="M29.747 0a3.73 3.73 0 012.042.967c.236.215.328.626.052.842-.898.708-.701 1.677-.644 2.577.368 5.729 1.663 11.276 3.375 16.734.624 1.991 1.325 3.96 1.98 5.941.089.27.281.529-.051.837-.332.307-.555-.021-.8-.006-1.86.122-2.277-1.324-2.892-2.566-3.106-6.28-4.624-12.956-4.952-19.926-.06-1.276.007-2.549.359-3.783.224-.786.607-1.472 1.53-1.617zM14.296 11.898c.226-.562.543-.786 1.082-.6.53.183.798.449.826 1.078.06 1.346.797 2.468 1.45 3.589 2.3 3.948 4.885 7.713 7.414 11.514.199.299.422.594.22 1.014-.243.51-.596.044-.882.14-.94.317-1.43-.333-1.92-.931-2.538-3.11-5.152-6.164-7.048-9.738-.621-1.173-1.21-2.359-1.677-3.605-.206-.552.164-1.172-.337-1.713-.204-.22-.114-.762.16-1.108.143-.18.288-.412.536-.338.29.087.118.384.176.698zM1.606 20.844c1.085.038 1.726.453 2.334 1.204 1.17 1.448 2.807 2.351 4.402 3.268a49.193 49.193 0 006.552 3.17c.575.225 1.11.555 1.644.872.203.12.44.293.255.62-.15.265-.354.242-.632.259-2.167.131-3.97-.989-5.854-1.74-2.568-1.023-5.027-2.303-7.223-4.023A11.204 11.204 0 01.954 22.3c-.26-.353-.443-.721-.217-1.176.248-.5.633-.356.87-.28z" fill="currentColor"/></svg>